<?xml version="1.0" encoding="utf-8"?><svg xmlns="http://www.w3.org/2000/svg" xmlns:xlink="http://www.w3.org/1999/xlink"><symbol viewBox="0 0 11 12" id="actions-icons--copy" xmlns="http://www.w3.org/2000/svg"><path d="M3.36 0a.96.96 0 00-.96.96v7.68c0 .53.43.96.96.96H9.6c.53 0 .96-.43.96-.96V3.12c0-.127-.05-.25-.14-.34L7.78.14A.483.483 0 007.44 0H3.36zM7.2.914L9.646 3.36H7.68a.48.48 0 01-.48-.48V.914zM.96 2.4a.96.96 0 00-.96.96v7.68c0 .53.43.96.96.96H7.2c.53 0 .96-.43.96-.96v-.48h-4.8a1.922 1.922 0 01-1.92-1.92V2.4H.96z"/></symbol><symbol viewBox="0 0 10 12" id="actions-icons--delete" xmlns="http://www.w3.org/2000/svg"><path d="M.714 10.667C.714 11.4 1.357 12 2.143 12h5.714c.786 0 1.429-.6 1.429-1.333v-8H.714v8zM10 .667H7.5L6.786 0H3.214L2.5.667H0V2h10V.667z"/></symbol><symbol viewBox="0 0 31 31" id="plus" xmlns="http://www.w3.org/2000/svg"><path d="M15.5 0C6.94 0 0 6.94 0 15.5 0 24.06 6.94 31 15.5 31 24.06 31 31 24.06 31 15.5 31 6.94 24.06 0 15.5 0zm6.458 16.792h-5.166v5.166a1.291 1.291 0 11-2.584 0v-5.166H9.042a1.292 1.292 0 010-2.584h5.166V9.042a1.291 1.291 0 112.584 0v5.166h5.166a1.292 1.292 0 010 2.584z"/></symbol><symbol viewBox="0 0 24 24" id="search" xmlns="http://www.w3.org/2000/svg"><path d="M8.4 0C3.775 0 0 3.775 0 8.4s3.775 8.4 8.4 8.4a8.35 8.35 0 005.49-2.063l.51.511V16.8l7.2 7.2 2.4-2.4-7.2-7.2h-1.552l-.51-.51A8.354 8.354 0 0016.8 8.4c0-4.625-3.775-8.4-8.4-8.4zm0 2.4c3.328 0 6 2.672 6 6s-2.672 6-6 6-6-2.672-6-6 2.672-6 6-6z"/></symbol><symbol viewBox="0 0 24 23" id="side-bar--my-bot" xmlns="http://www.w3.org/2000/svg"><path d="M21.391 12.023V9.948a4.199 4.199 0 00-4.19-4.198h-4.68V4.108a2.087 2.087 0 10-1.043 0V5.75h-4.68a4.2 4.2 0 00-4.19 4.198v2.075H0v6.272h2.609V23H21.39v-4.705H24v-6.272h-2.609zm-8.348 6.272v3.66h-2.086v-3.66h2.086zm-6.26-6.01a1.827 1.827 0 113.652 0 1.827 1.827 0 11-3.652-.001zm1.043 6.01h2.087v3.66H7.826v-3.66zm8.348 3.66h-2.087v-3.66h2.087v3.66zm-.783-7.841a1.828 1.828 0 01-1.826-1.83c0-1.01.817-1.83 1.826-1.83 1.01 0 1.826.82 1.826 1.83 0 1.01-.817 1.83-1.826 1.83z"/></symbol><symbol viewBox="0 0 9 16" id="social-icons--fb" xmlns="http://www.w3.org/2000/svg"><path d="M8.319.618L6.42.615c-2.132 0-3.51 1.414-3.51 3.602v1.661H1.002a.299.299 0 00-.298.299v2.406c0 .165.134.298.298.298h1.909v6.072c0 .165.133.298.298.298H5.7a.298.298 0 00.298-.298V8.88H8.23a.298.298 0 00.298-.298V6.177a.296.296 0 00-.298-.299H5.997V4.47c0-.676.162-1.02 1.043-1.02h1.279a.299.299 0 00.298-.299V.917a.3.3 0 00-.298-.299z"/></symbol><symbol viewBox="0 0 19 11" id="social-icons--telegram" xmlns="http://www.w3.org/2000/svg"><path d="M15.183 6.267c.57.557 1.172 1.081 1.684 1.694.226.273.44.554.604.87.231.45.021.944-.382.97h-2.505c-.646.053-1.161-.207-1.594-.649-.347-.353-.668-.729-1.002-1.094-.137-.15-.28-.29-.45-.4-.343-.223-.64-.155-.835.202-.199.363-.244.764-.264 1.169-.026.59-.205.744-.797.771-1.266.06-2.468-.131-3.585-.77-.984-.563-1.747-1.358-2.411-2.258C2.352 5.019 1.362 3.093.47 1.114.271.668.418.428.91.42A66.808 66.808 0 013.362.419c.332.005.552.195.68.509a15.262 15.262 0 001.663 3.08c.18.255.365.51.627.69.29.199.512.133.649-.19.086-.206.124-.427.144-.646.065-.757.073-1.511-.04-2.265-.07-.47-.335-.774-.804-.863-.24-.046-.204-.135-.088-.271.201-.236.39-.383.768-.383h2.831c.446.088.545.288.606.737L10.4 3.96c-.004.174.087.69.4.804.25.082.415-.118.565-.277.678-.72 1.162-1.57 1.594-2.45.192-.387.357-.789.516-1.19.119-.299.305-.445.64-.439l2.725.003c.08 0 .163 0 .24.014.46.078.586.276.444.724-.223.704-.658 1.29-1.083 1.879-.455.628-.94 1.236-1.391 1.868-.414.578-.381.869.133 1.37z"/></symbol><symbol viewBox="0 0 16 14" id="social-icons--vk" xmlns="http://www.w3.org/2000/svg"><path d="M.876 7.032l3.403 1.27 1.318 4.236a.4.4 0 00.636.192l1.897-1.547a.567.567 0 01.69-.02l3.421 2.485c.236.171.57.042.629-.243L15.376 1.35a.402.402 0 00-.537-.456L.872 6.281a.401.401 0 00.004.75zm4.508.594l6.651-4.097c.12-.073.243.089.14.184L6.686 8.815c-.193.18-.317.42-.352.681l-.187 1.386c-.025.185-.285.203-.336.024l-.72-2.527a.67.67 0 01.293-.753z"/></symbol><symbol viewBox="0 0 16 16" id="social-icons--whatsapp" xmlns="http://www.w3.org/2000/svg"><path d="M8 .615C3.928.615.615 3.928.615 8c0 1.271.329 2.522.952 3.625l-.94 3.352a.324.324 0 00.309.408.347.347 0 00.078-.01l3.498-.866A7.393 7.393 0 008 15.385c4.072 0 7.385-3.313 7.385-7.385C15.385 3.928 12.072.615 8 .615zm3.715 9.99c-.158.438-.916.837-1.28.89a2.61 2.61 0 01-1.194-.073 11.089 11.089 0 01-1.081-.395C6.258 10.216 5.016 8.325 4.92 8.2c-.094-.125-.774-1.015-.774-1.936 0-.92.49-1.374.664-1.561a.7.7 0 01.505-.235c.127 0 .253.002.364.007.116.006.273-.044.427.321.158.375.537 1.297.584 1.39.047.094.079.204.016.329-.063.125-.095.203-.19.312-.095.11-.199.244-.284.328-.095.094-.194.195-.083.382.11.188.49.8 1.054 1.297.724.638 1.335.836 1.525.93.19.093.3.077.41-.048.11-.125.474-.546.6-.734.127-.187.253-.156.427-.093.174.062 1.106.515 1.296.608.19.094.316.141.363.22.048.077.048.452-.11.889z"/></symbol></svg>